<mxfile host="app.diagrams.net" modified="2023-09-11T07:05:09.921Z" agent="Mozilla/5.0 (Windows NT 10.0; Win64; x64) AppleWebKit/537.36 (KHTML, like Gecko) Chrome/116.0.0.0 Safari/537.36" etag="gdYRsiZMUhO3x8EWgSHR" version="21.7.4" type="device">
  <diagram name="Page-1" id="kfoQ7cdZ7gQTbwRqY41l">
    <mxGraphModel dx="1050" dy="534" grid="1" gridSize="10" guides="1" tooltips="1" connect="1" arrows="1" fold="1" page="1" pageScale="1" pageWidth="850" pageHeight="1100" math="0" shadow="0">
      <root>
        <mxCell id="0" />
        <mxCell id="1" parent="0" />
        <mxCell id="BDXkj-I7wI0QAnH12voj-2" value="" style="shape=image;html=1;verticalLabelPosition=bottom;verticalAlign=top;imageAspect=1;aspect=fixed;image=img/clipart/Gear_128x128.png" vertex="1" parent="1">
          <mxGeometry x="340" y="140" width="52" height="61" as="geometry" />
        </mxCell>
        <mxCell id="BDXkj-I7wI0QAnH12voj-3" value="" style="shape=image;verticalLabelPosition=bottom;labelBackgroundColor=default;verticalAlign=top;aspect=fixed;imageAspect=0;image=https://i.pinimg.com/736x/bf/d4/3c/bfd43c31b938745606b9caabb7ded28e--how-to-draw-buses.jpg;" vertex="1" parent="1">
          <mxGeometry x="150" y="140" width="550" height="323" as="geometry" />
        </mxCell>
        <mxCell id="BDXkj-I7wI0QAnH12voj-4" value="" style="shape=image;verticalLabelPosition=bottom;labelBackgroundColor=default;verticalAlign=top;aspect=fixed;imageAspect=0;image=https://i.pinimg.com/736x/bf/d4/3c/bfd43c31b938745606b9caabb7ded28e--how-to-draw-buses.jpg;" vertex="1" parent="1">
          <mxGeometry x="180" y="120" width="550" height="323" as="geometry" />
        </mxCell>
      </root>
    </mxGraphModel>
  </diagram>
</mxfile>
